<svg version="1.1" viewBox="0.0 0.0 960.0 720.0" fill="none" stroke="none" stroke-linecap="square" stroke-miterlimit="10" xmlns:xlink="http://www.w3.org/1999/xlink" xmlns="http://www.w3.org/2000/svg"><clipPath id="p.0"><path d="m0 0l960.0 0l0 720.0l-960.0 0l0 -720.0z" clip-rule="nonzero"/></clipPath><g clip-path="url(#p.0)"><path fill="#000000" fill-opacity="0.0" d="m0 0l960.0 0l0 720.0l-960.0 0z" fill-rule="evenodd"/><path fill="#000000" fill-opacity="0.0" d="m4.5196853 671.30457l950.9606 0" fill-rule="evenodd"/><path stroke="#000000" stroke-width="16.0" stroke-linejoin="round" stroke-linecap="butt" d="m4.5196853 671.30457l950.9606 0" fill-rule="evenodd"/><path fill="#000000" d="m368.07242 443.4276l0 0c0 -23.671906 19.18988 -42.861755 42.861755 -42.861755l171.44186 0l0 0c11.367615 0 22.269714 4.5157776 30.307861 12.553925c8.038086 8.038147 12.553894 18.940186 12.553894 30.30783l0 174.49695c0 23.671936 -19.18988 42.861755 -42.861755 42.861755l-171.44186 0c-23.671875 0 -42.861755 -19.18982 -42.861755 -42.861755z" fill-rule="evenodd"/><path stroke="#000000" stroke-width="8.0" stroke-linejoin="round" stroke-linecap="butt" d="m368.07242 443.4276l0 0c0 -23.671906 19.18988 -42.861755 42.861755 -42.861755l171.44186 0l0 0c11.367615 0 22.269714 4.5157776 30.307861 12.553925c8.038086 8.038147 12.553894 18.940186 12.553894 30.30783l0 174.49695c0 23.671936 -19.18988 42.861755 -42.861755 42.861755l-171.44186 0c-23.671875 0 -42.861755 -19.18982 -42.861755 -42.861755z" fill-rule="evenodd"/><path fill="#000000" fill-opacity="0.0" d="m287.86993 48.695656l37.19687 54.173233" fill-rule="evenodd"/><path stroke="#000000" stroke-width="8.0" stroke-linejoin="round" stroke-linecap="butt" d="m287.86993 48.695656l37.19687 54.173233" fill-rule="evenodd"/><path fill="#000000" fill-opacity="0.0" d="m414.6631 48.695656l37.19687 54.173233" fill-rule="evenodd"/><path stroke="#000000" stroke-width="8.0" stroke-linejoin="round" stroke-linecap="butt" d="m414.6631 48.695656l37.19687 54.173233" fill-rule="evenodd"/><path fill="#000000" fill-opacity="0.0" d="m541.45624 48.695656l37.19684 54.173233" fill-rule="evenodd"/><path stroke="#000000" stroke-width="8.0" stroke-linejoin="round" stroke-linecap="butt" d="m541.45624 48.695656l37.19684 54.173233" fill-rule="evenodd"/><path fill="#000000" fill-opacity="0.0" d="m668.2494 48.695656l37.19684 54.173233" fill-rule="evenodd"/><path stroke="#000000" stroke-width="8.0" stroke-linejoin="round" stroke-linecap="butt" d="m668.2494 48.695656l37.19684 54.173233" fill-rule="evenodd"/><path fill="#000000" fill-opacity="0.0" d="m139.9446 175.48874l37.196854 54.173218" fill-rule="evenodd"/><path stroke="#000000" stroke-width="8.0" stroke-linejoin="round" stroke-linecap="butt" d="m139.9446 175.48874l37.196854 54.173218" fill-rule="evenodd"/><path fill="#000000" fill-opacity="0.0" d="m266.73773 175.48874l37.19687 54.173218" fill-rule="evenodd"/><path stroke="#000000" stroke-width="8.0" stroke-linejoin="round" stroke-linecap="butt" d="m266.73773 175.48874l37.19687 54.173218" fill-rule="evenodd"/><path fill="#000000" fill-opacity="0.0" d="m393.5309 175.48874l37.19684 54.173218" fill-rule="evenodd"/><path stroke="#000000" stroke-width="8.0" stroke-linejoin="round" stroke-linecap="butt" d="m393.5309 175.48874l37.19684 54.173218" fill-rule="evenodd"/><path fill="#000000" fill-opacity="0.0" d="m520.32404 175.48874l37.1969 54.173218" fill-rule="evenodd"/><path stroke="#000000" stroke-width="8.0" stroke-linejoin="round" stroke-linecap="butt" d="m520.32404 175.48874l37.1969 54.173218" fill-rule="evenodd"/><path fill="#000000" fill-opacity="0.0" d="m647.1172 175.48874l37.1969 54.173218" fill-rule="evenodd"/><path stroke="#000000" stroke-width="8.0" stroke-linejoin="round" stroke-linecap="butt" d="m647.1172 175.48874l37.1969 54.173218" fill-rule="evenodd"/><path fill="#000000" fill-opacity="0.0" d="m773.91034 175.48874l37.1969 54.173218" fill-rule="evenodd"/><path stroke="#000000" stroke-width="8.0" stroke-linejoin="round" stroke-linecap="butt" d="m773.91034 175.48874l37.1969 54.173218" fill-rule="evenodd"/><path fill="#000000" fill-opacity="0.0" d="m34.28363 302.2818l37.196846 54.17325" fill-rule="evenodd"/><path stroke="#000000" stroke-width="8.0" stroke-linejoin="round" stroke-linecap="butt" d="m34.28363 302.2818l37.196846 54.17325" fill-rule="evenodd"/><path fill="#000000" fill-opacity="0.0" d="m161.07678 302.2818l37.196854 54.17325" fill-rule="evenodd"/><path stroke="#000000" stroke-width="8.0" stroke-linejoin="round" stroke-linecap="butt" d="m161.07678 302.2818l37.196854 54.17325" fill-rule="evenodd"/><path fill="#000000" fill-opacity="0.0" d="m287.86993 302.2818l37.19687 54.17325" fill-rule="evenodd"/><path stroke="#000000" stroke-width="8.0" stroke-linejoin="round" stroke-linecap="butt" d="m287.86993 302.2818l37.19687 54.17325" fill-rule="evenodd"/><path fill="#000000" fill-opacity="0.0" d="m414.6631 302.2818l37.19687 54.17325" fill-rule="evenodd"/><path stroke="#000000" stroke-width="8.0" stroke-linejoin="round" stroke-linecap="butt" d="m414.6631 302.2818l37.19687 54.17325" fill-rule="evenodd"/><path fill="#000000" fill-opacity="0.0" d="m541.45624 302.2818l37.19684 54.17325" fill-rule="evenodd"/><path stroke="#000000" stroke-width="8.0" stroke-linejoin="round" stroke-linecap="butt" d="m541.45624 302.2818l37.19684 54.17325" fill-rule="evenodd"/><path fill="#000000" fill-opacity="0.0" d="m668.2494 302.2818l37.19684 54.17325" fill-rule="evenodd"/><path stroke="#000000" stroke-width="8.0" stroke-linejoin="round" stroke-linecap="butt" d="m668.2494 302.2818l37.19684 54.17325" fill-rule="evenodd"/><path fill="#000000" fill-opacity="0.0" d="m795.04254 302.2818l37.19684 54.17325" fill-rule="evenodd"/><path stroke="#000000" stroke-width="8.0" stroke-linejoin="round" stroke-linecap="butt" d="m795.04254 302.2818l37.19684 54.17325" fill-rule="evenodd"/><path fill="#000000" fill-opacity="0.0" d="m900.7035 302.2818l37.1969 54.17325" fill-rule="evenodd"/><path stroke="#000000" stroke-width="8.0" stroke-linejoin="round" stroke-linecap="butt" d="m900.7035 302.2818l37.1969 54.17325" fill-rule="evenodd"/><path fill="#000000" fill-opacity="0.0" d="m13.151437 429.0749l37.19685 54.173218" fill-rule="evenodd"/><path stroke="#000000" stroke-width="8.0" stroke-linejoin="round" stroke-linecap="butt" d="m13.151437 429.0749l37.19685 54.173218" fill-rule="evenodd"/><path fill="#000000" fill-opacity="0.0" d="m139.9446 429.0749l37.196854 54.173218" fill-rule="evenodd"/><path stroke="#000000" stroke-width="8.0" stroke-linejoin="round" stroke-linecap="butt" d="m139.9446 429.0749l37.196854 54.173218" fill-rule="evenodd"/><path fill="#000000" fill-opacity="0.0" d="m266.73773 429.0749l37.19687 54.173218" fill-rule="evenodd"/><path stroke="#000000" stroke-width="8.0" stroke-linejoin="round" stroke-linecap="butt" d="m266.73773 429.0749l37.19687 54.173218" fill-rule="evenodd"/><path fill="#000000" fill-opacity="0.0" d="m393.5309 429.0749l37.19684 54.173218" fill-rule="evenodd"/><path stroke="#000000" stroke-width="8.0" stroke-linejoin="round" stroke-linecap="butt" d="m393.5309 429.0749l37.19684 54.173218" fill-rule="evenodd"/><path fill="#000000" fill-opacity="0.0" d="m520.32404 429.0749l37.1969 54.173218" fill-rule="evenodd"/><path stroke="#000000" stroke-width="8.0" stroke-linejoin="round" stroke-linecap="butt" d="m520.32404 429.0749l37.1969 54.173218" fill-rule="evenodd"/><path fill="#000000" fill-opacity="0.0" d="m773.91034 429.0749l37.1969 54.173218" fill-rule="evenodd"/><path stroke="#000000" stroke-width="8.0" stroke-linejoin="round" stroke-linecap="butt" d="m773.91034 429.0749l37.1969 54.173218" fill-rule="evenodd"/><path fill="#000000" fill-opacity="0.0" d="m900.7035 429.0749l37.1969 54.173218" fill-rule="evenodd"/><path stroke="#000000" stroke-width="8.0" stroke-linejoin="round" stroke-linecap="butt" d="m900.7035 429.0749l37.1969 54.173218" fill-rule="evenodd"/><path fill="#000000" fill-opacity="0.0" d="m97.68021 555.868l37.196854 54.173218" fill-rule="evenodd"/><path stroke="#000000" stroke-width="8.0" stroke-linejoin="round" stroke-linecap="butt" d="m97.68021 555.868l37.196854 54.173218" fill-rule="evenodd"/><path fill="#000000" fill-opacity="0.0" d="m224.47336 555.868l37.19687 54.173218" fill-rule="evenodd"/><path stroke="#000000" stroke-width="8.0" stroke-linejoin="round" stroke-linecap="butt" d="m224.47336 555.868l37.19687 54.173218" fill-rule="evenodd"/><path fill="#000000" fill-opacity="0.0" d="m478.05966 555.868l37.19687 54.173218" fill-rule="evenodd"/><path stroke="#000000" stroke-width="8.0" stroke-linejoin="round" stroke-linecap="butt" d="m478.05966 555.868l37.19687 54.173218" fill-rule="evenodd"/><path fill="#000000" fill-opacity="0.0" d="m858.43915 555.868l37.19684 54.173218" fill-rule="evenodd"/><path stroke="#000000" stroke-width="8.0" stroke-linejoin="round" stroke-linecap="butt" d="m858.43915 555.868l37.19684 54.173218" fill-rule="evenodd"/></g></svg>