<svg id="Layer_1" data-name="Layer 1" xmlns="http://www.w3.org/2000/svg" viewBox="0 0 111.58 120.89"><defs><style>.cls-1,.cls-2,.cls-7{fill:none;stroke-miterlimit:10;}.cls-1,.cls-7{stroke:#000;}.cls-1{stroke-dasharray:8 4;}.cls-2{stroke:blue;stroke-width:2px;}.cls-3{fill:blue;}.cls-4,.cls-5{font-size:14px;font-family:TimesNewRomanPS-ItalicMT, Times New Roman;font-style:italic;}.cls-5{letter-spacing:0.22em;}.cls-6{letter-spacing:-0.18em;}</style></defs><line class="cls-1" x1="43.81" x2="43.81" y2="120.67"/><line class="cls-2" x1="43.81" y1="12.26" x2="103.06" y2="90.49"/><polygon class="cls-3" points="111.58 101.75 93.09 90.8 102.42 89.65 106.05 80.98 111.58 101.75"/><text class="cls-4" transform="translate(76.22 48.86)">v</text><text class="cls-4" transform="translate(82.43 51.52) scale(0.58)">r</text><text class="cls-4" transform="translate(49.09 49.41)">θ</text><line class="cls-1" x1="111.58" y1="101.75" x2="43.81" y2="101.75"/><text class="cls-4" transform="translate(55.12 113.93)">v</text><text class="cls-5" transform="translate(61.33 116.59) scale(0.58)">r</text><text class="cls-4" transform="translate(66.3 113.93)">cos<tspan class="cls-6" x="18.66" y="0"> </tspan><tspan x="19.64" y="0">θ</tspan></text><text class="cls-4" transform="translate(0 61.95)">v</text><text class="cls-5" transform="translate(6.21 64.62) scale(0.58)">r</text><text class="cls-4" transform="translate(11.19 61.95)">sin<tspan class="cls-6" x="16.34" y="0"> </tspan><tspan x="17.32" y="0">θ</tspan></text><path class="cls-7" d="M78.35,43.92a25.13,25.13,0,0,1-15.24,5.15h0" transform="translate(-19.3 -11.67)"/><path class="cls-7" d="M63.11,23.93" transform="translate(-19.3 -11.67)"/></svg>