<?xml version="1.0" encoding="UTF-8"?><svg id="a" xmlns="http://www.w3.org/2000/svg" viewBox="0 0 236.16 128.25"><defs><style>.b{letter-spacing:0em;}.b,.c{font-size:8px;}.b,.c,.d{font-family:TimesNewRomanPS-ItalicMT, Times New Roman;}.e,.f,.g{fill:none;stroke-miterlimit:10;stroke-width:2px;}.e,.g{stroke:#000;}.d{font-size:12px;}.f{stroke:blue;}.f,.g{stroke-dasharray:0 0 8 4;}.h{fill:red;}</style></defs><g><line class="g" x1="1" y1="13.76" x2="1" y2="98.1"/><rect class="h" x="1" y="13.76" width="64.05" height="106.22"/><line class="g" x1="1" y1="13.76" x2="65.05" y2="119.98"/><path class="e" d="M15.23,37.34c-2.12,1.28-4.39,2.26-6.77,2.93s-4.84,1.01-7.31,1.03"/><text class="c" transform="translate(12.55 79.22) rotate(-90)"><tspan x="0" y="0">tan</tspan></text><text class="c" transform="translate(9.89 69) rotate(-90) scale(.58)"><tspan x="0" y="0">-1</tspan></text><text class="c" transform="translate(12.55 65.12) rotate(-90)"><tspan x="0" y="0" xml:space="preserve"> w / h</tspan></text><text class="d" transform="translate(67.47 70.53)"><tspan x="0" y="0">h</tspan></text><text class="d" transform="translate(29.33 9.97)"><tspan x="0" y="0">w</tspan></text></g><g><line class="g" x1="86.85" y1="13.86" x2="86.85" y2="98.19"/><line class="g" x1="86.85" y1="13.86" x2="150.91" y2="120.07"/><text class="c" transform="translate(94.39 125.68)"><tspan x="0" y="0">θ &lt; tan</tspan></text><text class="b" transform="translate(117.94 123.01) scale(.58)"><tspan x="0" y="0">-1</tspan></text><text class="c" transform="translate(121.83 125.68)"><tspan x="0" y="0" xml:space="preserve"> w / h</tspan></text><line class="f" x1="98.63" y1="13.86" x2="100.49" y2="22.73"/><line class="f" x1="113.43" y1="39.72" x2="115.29" y2="48.59"/><line class="f" x1="105.72" y1="51.59" x2="107.58" y2="60.46"/><line class="f" x1="93.46" y1="62.53" x2="95.32" y2="71.4"/><line class="f" x1="103.85" y1="66.97" x2="105.7" y2="75.84"/><line class="f" x1="96.98" y1="79.32" x2="98.84" y2="88.19"/><line class="f" x1="107.56" y1="101.72" x2="109.41" y2="110.59"/><line class="f" x1="104.18" y1="85.64" x2="106.04" y2="94.51"/><line class="f" x1="96.28" y1="101.72" x2="98.14" y2="110.59"/><line class="f" x1="111.7" y1="76.23" x2="113.56" y2="85.1"/><line class="f" x1="117.95" y1="92.32" x2="119.81" y2="101.19"/><line class="f" x1="131.86" y1="89.4" x2="133.72" y2="98.27"/><line class="f" x1="114.36" y1="58.1" x2="116.22" y2="66.97"/><line class="f" x1="125.3" y1="58.1" x2="127.16" y2="66.97"/><line class="f" x1="122.77" y1="74.88" x2="124.63" y2="83.75"/><line class="f" x1="141.4" y1="98.19" x2="143.26" y2="107.06"/><line class="f" x1="130.55" y1="103.2" x2="132.41" y2="112.07"/><line class="f" x1="133.51" y1="44.85" x2="135.37" y2="53.72"/><line class="f" x1="136.06" y1="65.53" x2="137.92" y2="74.4"/><line class="f" x1="148.92" y1="79.32" x2="150.78" y2="88.19"/><line class="f" x1="138.42" y1="80.95" x2="140.28" y2="89.82"/><line class="f" x1="144.54" y1="58.44" x2="146.4" y2="67.31"/><line class="f" x1="129.62" y1="26.26" x2="131.48" y2="35.13"/><line class="f" x1="140.47" y1="34.88" x2="142.33" y2="43.75"/><line class="f" x1="136.06" y1="13.86" x2="137.92" y2="22.73"/><line class="f" x1="109.7" y1="21.92" x2="111.56" y2="30.79"/><line class="f" x1="122.77" y1="36.86" x2="124.63" y2="45.73"/><line class="f" x1="117.95" y1="13.86" x2="119.81" y2="22.73"/><line class="f" x1="99.56" y1="29.37" x2="101.42" y2="38.24"/><line class="f" x1="95.36" y1="43.5" x2="97.21" y2="52.37"/></g><g><text class="c" transform="translate(176.76 125.79)"><tspan x="0" y="0">θ &gt; tan</tspan></text><text class="b" transform="translate(200.31 123.13) scale(.58)"><tspan x="0" y="0">-1</tspan></text><text class="c" transform="translate(204.2 125.79)"><tspan x="0" y="0" xml:space="preserve"> w / h</tspan></text><line class="g" x1="169.22" y1="13.86" x2="169.22" y2="98.19"/><line class="g" x1="169.22" y1="13.86" x2="233.27" y2="120.07"/><line class="f" x1="178.68" y1="15.14" x2="185.18" y2="21.45"/><line class="f" x1="193.48" y1="40.99" x2="199.98" y2="47.31"/><line class="f" x1="185.76" y1="52.87" x2="192.27" y2="59.18"/><line class="f" x1="173.51" y1="63.81" x2="180.01" y2="70.12"/><line class="f" x1="183.89" y1="68.24" x2="190.39" y2="74.56"/><line class="f" x1="177.03" y1="80.59" x2="183.53" y2="86.91"/><line class="f" x1="187.6" y1="103" x2="194.1" y2="109.31"/><line class="f" x1="184.23" y1="86.92" x2="190.73" y2="93.23"/><line class="f" x1="176.33" y1="103" x2="182.83" y2="109.31"/><line class="f" x1="191.75" y1="77.51" x2="198.25" y2="83.82"/><line class="f" x1="198" y1="93.6" x2="204.5" y2="99.91"/><line class="f" x1="211.91" y1="90.68" x2="218.41" y2="96.99"/><line class="f" x1="194.41" y1="59.37" x2="200.91" y2="65.69"/><line class="f" x1="205.35" y1="59.37" x2="211.85" y2="65.69"/><line class="f" x1="202.82" y1="76.16" x2="209.32" y2="82.47"/><line class="f" x1="221.45" y1="99.47" x2="227.95" y2="105.79"/><line class="f" x1="210.59" y1="104.48" x2="217.09" y2="110.8"/><line class="f" x1="213.56" y1="46.13" x2="220.06" y2="52.44"/><line class="f" x1="216.11" y1="66.8" x2="222.61" y2="73.12"/><line class="f" x1="228.96" y1="80.59" x2="235.47" y2="86.91"/><line class="f" x1="218.46" y1="82.23" x2="224.96" y2="88.54"/><line class="f" x1="224.59" y1="59.72" x2="231.09" y2="66.03"/><line class="f" x1="209.66" y1="27.54" x2="216.17" y2="33.85"/><line class="f" x1="220.52" y1="36.16" x2="227.02" y2="42.47"/><line class="f" x1="216.11" y1="15.14" x2="222.61" y2="21.45"/><line class="f" x1="189.75" y1="23.2" x2="196.25" y2="29.51"/><line class="f" x1="202.82" y1="38.14" x2="209.32" y2="44.46"/><line class="f" x1="198" y1="15.14" x2="204.5" y2="21.45"/><line class="f" x1="179.61" y1="30.65" x2="186.11" y2="36.96"/><line class="f" x1="175.4" y1="44.78" x2="181.9" y2="51.1"/></g></svg>